<?xml version="1.0" encoding="UTF-8"?>
<svg id="Layer_1" data-name="Layer 1" xmlns="http://www.w3.org/2000/svg" xmlns:xlink="http://www.w3.org/1999/xlink" viewBox="0 0 800 800">
  <defs>
    <style>
      .cls-1 {
        fill: url(#linear-gradient-2);
      }

      .cls-2 {
        fill: url(#linear-gradient-3);
      }

      .cls-3 {
        fill: url(#linear-gradient);
      }
    </style>
    <linearGradient id="linear-gradient" x1="652.9" y1="297.19" x2="652.9" y2="286.7" gradientUnits="userSpaceOnUse">
      <stop offset="0" stop-color="#3478c1"/>
      <stop offset=".17" stop-color="#2177c0"/>
      <stop offset=".39" stop-color="#1276c0"/>
      <stop offset=".64" stop-color="#0876c0"/>
      <stop offset="1" stop-color="#0676c0"/>
    </linearGradient>
    <linearGradient id="linear-gradient-2" x1="403.48" y1="419.71" x2="403.48" y2="404.13" gradientUnits="userSpaceOnUse">
      <stop offset="0" stop-color="#0676c0"/>
      <stop offset="0" stop-color="#03167d"/>
    </linearGradient>
    <linearGradient id="linear-gradient-3" x1="400" y1="626.48" x2="400" y2="145.16" gradientUnits="userSpaceOnUse">
      <stop offset=".04" stop-color="#03167d"/>
      <stop offset=".29" stop-color="#03308f"/>
      <stop offset=".83" stop-color="#0573bd"/>
      <stop offset=".85" stop-color="#0676c0"/>
    </linearGradient>
  </defs>
  <path class="cls-3" d="M653.63,297.19c.28,0,.57-.04,.85-.13,2.04-.63,2.99-3.43,2.12-6.26-.75-2.44-2.62-4.11-4.43-4.11-.28,0-.57,.04-.85,.13-2.04,.63-2.99,3.43-2.12,6.26,.75,2.44,2.62,4.11,4.43,4.11Z"/>
  <circle class="cls-1" cx="403.48" cy="411.92" r="7.79"/>
  <path class="cls-2" d="M723.4,325.52c-.37-2.76-2.91-4.69-5.67-4.32l-23.41,3.1s0,0,0,0l-41.76,5.54h-.02s0,0,0,0l-151.88,20.14c-.3,.04-.6,.06-.9,.06-1.54,0-3.04-.51-4.26-1.48l-28.1-22.14-141.7,13.04c-1.64,8.36-10.73,14.76-21.71,14.76-12.14,0-21.97-7.82-21.97-17.46s9.84-17.47,21.97-17.47c7.06,0,13.34,2.65,17.36,6.76l147.52-13.58c1.75-.16,3.5,.36,4.89,1.45l27.97,22.04,187.79-24.9c-35.37-88.89-122.19-151.72-223.68-151.72-89.91,0-168.29,49.31-209.6,122.35l260.29-7.75c1.23-.03,2.45,.33,3.45,1.06l24.25,18.19,99.61-5.35c.04-.16,.08-.31,.14-.47,.97-2.86,3.06-4.97,5.74-5.8,.8-.25,1.63-.37,2.47-.37,4.32,0,8.21,3.21,9.69,7.98,1.8,5.82-.73,11.59-5.75,13.14-.8,.25-1.63,.37-2.47,.37-3.27,0-6.3-1.84-8.21-4.81l-100.84,7.22c-.12,0-.24,.01-.37,.01-1.17,0-2.31-.37-3.25-1.06l-23.33-17.27-234.95,11.02h0l-79.35,3.19c-3.54,.17-6.27,3.18-6.1,6.72,.17,3.44,3,6.11,6.4,6.11,.1,0,.21,0,.31,0l37.85-1.82c-10.72,27.26-16.63,56.94-16.63,88.01,0,32.62,6.51,63.73,18.27,92.1l299.72-75.78,13.89-26.97c1.15-2.22,3.24-3.81,5.69-4.31l100.65-18.17c.73-3.54,2.85-6.37,5.94-7.32,5.08-1.57,10.85,2.5,12.88,9.09,2.03,6.59-.44,13.2-5.52,14.77-3.26,1-6.79-.31-9.44-3.12l-95.81,19.85c-1.56,.32-2.87,1.35-3.56,2.78l-11.73,24.24c-1.08,2.09-2.99,3.62-5.27,4.21l-253.12,69.4c-.47,.05-.96,.13-1.47,.27l-213,59.01c-4.88,1.36-7.73,6.41-6.37,11.29,1.13,4.06,4.81,6.71,8.83,6.71,.81,0,1.64-.11,2.46-.34l174.55-48.57c42.69,67.09,117.65,111.51,203.09,111.51,132.91,0,240.66-107.75,240.66-240.66,0-17.94-1.98-35.41-5.7-52.23l-179.31,27.87-16.66,22.49c-1.05,1.41-2.59,2.37-4.33,2.68l-77.49,13.73c-1.29,9.63-9.54,17.09-19.52,17.09-10.87,0-19.71-8.84-19.71-19.71s8.84-19.71,19.71-19.71c6.88,0,12.94,3.55,16.47,8.91l75.44-13.36,16.71-22.55c1.08-1.45,2.68-2.42,4.47-2.7l180.87-28.37,21.64-2.92c2.76-.37,4.7-2.91,4.32-5.67Z"/>
</svg>